Coordinates
version=1
nRows=13
nColumns=40
inDegrees=yes

Units are S.I. units (second, meters, Newtons, ...)
Angles are in degrees.

endheader
time	pelvis_tilt	pelvis_list	pelvis_rotation	pelvis_tx	pelvis_ty	pelvis_tz	hip_flexion_r	hip_adduction_r	hip_rotation_r	knee_angle_r	knee_angle_r_beta	ankle_angle_r	subtalar_angle_r	mtp_angle_r	hip_flexion_l	hip_adduction_l	hip_rotation_l	knee_angle_l	knee_angle_l_beta	ankle_angle_l	subtalar_angle_l	mtp_angle_l	lumbar_extension	lumbar_bending	lumbar_rotation	arm_flex_r	arm_add_r	arm_rot_r	elbow_flex_r	pro_sup_r	wrist_flex_r	wrist_dev_r	arm_flex_l	arm_add_l	arm_rot_l	elbow_flex_l	pro_sup_l	wrist_flex_l	wrist_dev_l
      7.08750000	     -4.68490634	     -4.31801314	      3.61356145	      1.03425932	      0.92759539	      0.46389380	      3.88424833	     -1.43476196	    -15.43037876	     22.03006375	     22.03006375	     16.60885063	      1.79701461	     -3.23896143	     23.31612700	     -5.06871475	      0.05028437	     24.60893416	     24.60893416	      8.58787872	    -14.32174879	      4.54030146	     -9.41358170	      3.10976548	      3.06273947	     23.14470275	    -14.17672945	     10.00227813	     69.82476095	     44.90658882	      0.00000000	      0.00000000	      1.85697336	     -9.59459104	    -10.42329396	     30.67380373	     46.74010809	      0.00000000	      0.00000000
      7.10085714	     -4.36797897	     -4.68815994	      3.54373228	      1.03516596	      0.92885642	      0.46059829	      4.03930927	     -1.52551878	    -15.29962825	     23.61376758	     23.61376758	     15.99139120	      1.61057328	     -3.51514109	     22.51759756	     -5.31008368	      0.02687197	     24.57214923	     24.57214923	      8.90051781	    -14.36221821	      4.55249599	     -9.82366082	      3.65781857	      2.63099572	     21.62774373	    -14.25413182	     10.20979825	     68.90428978	     44.92441500	      0.00000000	      0.00000000	      1.86108822	     -9.38786177	    -10.39228473	     30.77426168	     46.73377221	      0.00000000	      0.00000000
      7.11421429	     -4.54662770	     -4.27646147	      3.13580841	      1.03533338	      0.92868423	      0.45733012	      5.94675653	     -2.80482239	    -14.48098016	     27.49672709	     27.49672709	     15.52973454	      0.41328667	     -5.12543007	     22.17201214	     -4.78895959	     -0.53365344	     24.58020005	     24.58020005	      9.39219947	    -14.23782302	      4.56123919	     -9.54507293	      3.23377030	      3.28923629	     20.46261785	    -14.76615771	     10.40399592	     66.06804986	     45.01203013	      0.00000000	      0.00000000	      2.34222556	     -9.19596219	    -10.31087255	     31.52429464	     46.72385289	      0.00000000	      0.00000000
      7.12757143	     -4.53220955	     -4.36225377	      2.89439849	      1.03568314	      0.92915734	      0.45435345	      7.13194741	     -3.21961455	    -13.59766949	     30.05179736	     30.05179736	     12.94361113	     -1.76043493	    -10.58714304	     21.71614755	     -4.76422219	     -0.75091338	     24.64707190	     24.64707190	     10.05147862	    -14.11190300	      5.28670359	     -9.39209442	      3.36335709	      2.17142111	     21.12416037	    -13.36290931	     10.49726931	     58.88114886	     45.27162320	      0.00000000	      0.00000000	      1.38653242	     -9.44570177	     -9.52956156	     33.22408219	     46.57671570	      0.00000000	      0.00000000
      7.14092857	     -4.47579247	     -4.33141989	      2.58633605	      1.03595983	      0.92948609	      0.45139802	      8.70817250	     -3.97370719	    -12.95940627	     33.57117527	     33.57117527	     11.81299182	     -2.61814038	    -11.70489539	     21.12715344	     -4.64671226	     -1.11919114	     24.56394822	     24.56394822	     10.43786134	    -14.02075695	      5.13880828	     -9.48295873	      3.39718947	      2.29908339	     19.55151082	    -13.82118622	     10.71727765	     57.51878968	     45.30327767	      0.00000000	      0.00000000	      1.63541221	     -9.35748285	     -9.47625830	     33.85888496	     46.57128012	      0.00000000	      0.00000000
      7.15428571	     -4.39849424	     -4.39410809	      2.29518911	      1.03617326	      0.92981114	      0.44864936	     10.23781199	     -4.44128496	    -12.01255889	     36.74894418	     36.74894418	      9.06849525	     -4.89002131	    -16.17698501	     20.54896775	     -4.63830227	     -1.43830010	     24.51171350	     24.51171350	     10.78773770	    -13.92062278	      4.81291290	     -9.51395532	      3.51737451	      1.82297813	     19.10180588	    -13.30089120	     10.40696924	     53.07659219	     45.46828991	      0.00000000	      0.00000000	      1.07455473	     -9.64988942	     -8.42119413	     35.82298718	     46.42169133	      0.00000000	      0.00000000
      7.16764286	     -4.22626420	     -4.31245706	      1.99485782	      1.03636154	      0.93015245	      0.44589851	     11.92131997	     -5.16208147	    -11.18922764	     40.49089789	     40.49089789	      7.63033789	     -5.82128414	    -16.54554756	     19.84219992	     -4.47714243	     -1.81685526	     24.43107059	     24.43107059	     11.16626329	    -13.83454596	      4.63705939	     -9.74660179	      3.54463734	      1.80916152	     17.53882823	    -13.69933142	     10.46872981	     51.83554954	     45.50104652	      0.00000000	      0.00000000	      1.45223651	     -9.65053678	     -8.37770319	     36.26539662	     46.42269786	      0.00000000	      0.00000000
      7.18100000	     -4.16139906	     -4.48337281	      1.64428706	      1.03643685	      0.93032937	      0.44363217	     13.77781083	     -5.32164749	     -9.96988293	     44.04609533	     44.04609533	      5.67297842	     -7.72363900	    -16.89611204	     19.31924100	     -4.63519813	     -2.21252214	     24.43437794	     24.43437794	     11.55197594	    -13.64894741	      4.15709760	     -9.76199246	      3.73312780	      1.98933554	     16.34319674	    -13.73618033	      9.80566722	     48.26939170	     45.64925116	      0.00000000	      0.00000000	      1.66144469	     -9.76545925	     -7.72151075	     37.45721625	     46.35186554	      0.00000000	      0.00000000
      7.19435714	     -4.03861005	     -4.47127141	      1.35373962	      1.03649661	      0.93054243	      0.44132741	     15.59438305	     -5.77239420	     -9.05895475	     47.60850668	     47.60850668	      4.05959228	     -8.68307162	    -16.36384805	     18.65367577	     -4.58978090	     -2.67194762	     24.27897334	     24.27897334	     11.85123550	    -13.39281536	      3.56663442	     -9.86450502	      3.74769325	      1.47485920	     15.70711265	    -13.11751880	      8.39319891	     44.21375122	     45.84632494	      0.00000000	      0.00000000	      1.42710984	    -10.31753057	     -6.45632659	     38.84273206	     46.21790223	      0.00000000	      0.00000000
      7.20771429	     -3.86892894	     -4.50662569	      1.03695508	      1.03653757	      0.93076643	      0.43919725	     17.32379009	     -6.04479313	     -8.08880838	     50.92424840	     50.92424840	      2.61513556	     -9.64133985	    -15.23892838	     17.99161891	     -4.60342666	     -3.11234490	     24.23413930	     24.23413930	     12.22289234	    -13.19466675	      3.23983655	    -10.04142039	      3.84363005	      1.52642245	     14.14583397	    -13.43725653	      7.91427450	     42.21876028	     45.92620498	      0.00000000	      0.00000000	      1.84084309	    -10.43170417	     -6.06505716	     39.61593150	     46.19095159	      0.00000000	      0.00000000
      7.22107143	     -3.57171300	     -4.56460564	      0.84197866	      1.03668687	      0.93123312	      0.43697040	     18.71554794	     -6.37532671	     -7.50342719	     53.76683902	     53.76683902	      1.16154201	    -10.12888026	    -14.83675676	     17.13200947	     -4.57514172	     -3.31966722	     24.06429748	     24.06429748	     12.67469628	    -13.05153193	      3.06334256	    -10.36979580	      4.01364839	      0.96527654	     12.62660540	    -13.73622308	      7.82953682	     41.25495708	     45.95587461	      0.00000000	      0.00000000	      2.09929845	    -10.66413304	     -6.04073557	     39.85676895	     46.19416857	      0.00000000	      0.00000000
      7.23442857	     -3.54686922	     -4.54586241	      0.45903985	      1.03652478	      0.93137382	      0.43533322	     20.66088338	     -6.49441533	     -6.45231227	     56.83576659	     56.83576659	      1.77475037	     -9.92646232	     -8.40500505	     16.57762536	     -4.62002424	     -4.09406073	     23.90653363	     23.90653363	     12.90829293	    -12.46586282	      2.30512869	    -10.33404086	      3.98082748	      1.14480517	     11.81920670	    -13.00187676	      3.68061412	     36.37403453	     46.26621172	      0.00000000	      0.00000000	      2.35079850	    -11.35260066	     -3.55330591	     41.37900758	     46.03321598	      0.00000000	      0.00000000
      7.24778571	     -3.39054174	     -4.51532999	      0.19128471	      1.03646514	      0.93178780	      0.43353261	     22.03482199	     -6.69049898	     -5.78789936	     58.86033979	     58.86033979	      0.74332385	    -10.62102016	     -7.94672386	     15.84208636	     -4.53715708	     -4.49502360	     23.66549075	     23.66549075	     13.23205580	    -12.23617409	      2.18033648	    -10.49768226	      3.99109968	      0.79114305	     10.19355728	    -13.40050258	      3.62082625	     35.33236592	     46.29568929	      0.00000000	      0.00000000	      2.80660818	    -11.60004325	     -3.59390675	     41.71607810	     46.04866889	      0.00000000	      0.00000000
